<svg xmlns="http://www.w3.org/2000/svg" width="20" height="20" viewBox="0 0 20 20" fill="none">
  <g clip-path="url(#clip0_2466_9550)">
    <path d="M14.0001 6.4165V13.0832C14.0001 13.5252 13.8245 13.9491 13.5119 14.2617C13.1994 14.5742 12.7754 14.7498 12.3334 14.7498H2.33341C1.89139 14.7498 1.46746 14.5742 1.1549 14.2617C0.842343 13.9491 0.666748 13.5252 0.666748 13.0832V6.4165" stroke="currentColor" stroke-width="1.5" stroke-linecap="round" stroke-linejoin="round"/>
    <path d="M14.0001 6.41667C14.0001 5.97464 13.8245 5.55072 13.5119 5.23816C13.1994 4.92559 12.7754 4.75 12.3334 4.75H2.33341C1.89139 4.75 1.46746 4.92559 1.1549 5.23816C0.842343 5.55072 0.666748 5.97464 0.666748 6.41667L6.45008 10.0278C6.71497 10.1933 7.02105 10.2811 7.33342 10.2811C7.64578 10.2811 7.95186 10.1933 8.21675 10.0278L14.0001 6.41667Z" stroke="currentColor" stroke-width="1.5" stroke-linecap="round" stroke-linejoin="round"/>
  </g>
  <defs>
    <clipPath id="clip0_2466_9550">
      <rect width="20" height="20" fill="white"/>
    </clipPath>
  </defs>
</svg>