<svg xmlns="http://www.w3.org/2000/svg" width="20" height="22" viewBox="0 0 20 22" fill="none">
  <path d="M16.8609 8.03956C16.8609 13.4184 11.3517 16.7321 10.2068 17.3633C10.1434 17.3983 10.0722 17.4167 9.99974 17.4167C9.9273 17.4167 9.85605 17.3983 9.79263 17.3633C8.64688 16.7321 3.1394 13.4184 3.1394 8.03956C3.1394 3.75158 5.71219 0.75 10.0002 0.75C14.2881 0.75 16.8609 3.75158 16.8609 8.03956Z" stroke="currentColor" stroke-width="1.5" stroke-linecap="round" stroke-linejoin="round"/>
  <path d="M6.56982 7.6108C6.56982 8.52059 6.93124 9.39312 7.57456 10.0364C8.21788 10.6798 9.09041 11.0412 10.0002 11.0412C10.91 11.0412 11.7825 10.6798 12.4258 10.0364C13.0692 9.39312 13.4306 8.52059 13.4306 7.6108C13.4306 6.70101 13.0692 5.82848 12.4258 5.18515C11.7825 4.54183 10.91 4.18042 10.0002 4.18042C9.09041 4.18042 8.21788 4.54183 7.57456 5.18515C6.93124 5.82848 6.56982 6.70101 6.56982 7.6108V7.6108Z" stroke="currentColor" stroke-width="1.5" stroke-linecap="round" stroke-linejoin="round"/>
</svg>