<svg xmlns="http://www.w3.org/2000/svg" width="20" height="20" viewBox="0 0 20 20" fill="none">
  <path d="M10.8904 14.4559L10.8981 14.4612C11.5591 14.8822 12.344 15.065 13.123 14.9794C13.902 14.8939 14.6284 14.5451 15.1824 13.9907L15.6636 13.5094C15.7703 13.4028 15.8549 13.2763 15.9126 13.137C15.9703 12.9977 16 12.8484 16 12.6976C16 12.5468 15.9703 12.3975 15.9126 12.2582C15.8549 12.1189 15.7703 11.9924 15.6636 11.8858L13.6339 9.85739C13.5273 9.75074 13.4008 9.66613 13.2615 9.60841C13.1222 9.55068 12.973 9.52097 12.8222 9.52097C12.6714 9.52097 12.5221 9.55068 12.3829 9.60841C12.2436 9.66613 12.117 9.75074 12.0105 9.85739C11.7953 10.0726 11.5034 10.1934 11.1991 10.1934C10.8948 10.1934 10.603 10.0726 10.3878 9.85739L7.14238 6.6109C6.92724 6.39568 6.80638 6.1038 6.80638 5.79947C6.80638 5.49514 6.92724 5.20327 7.14238 4.98804C7.24902 4.88146 7.33362 4.7549 7.39133 4.61561C7.44905 4.47631 7.47876 4.32701 7.47876 4.17623C7.47876 4.02545 7.44905 3.87615 7.39133 3.73685C7.33362 3.59756 7.24902 3.471 7.14238 3.36442L5.11344 1.33603C4.89823 1.12087 4.60639 1 4.30209 1C3.99779 1 3.70595 1.12087 3.49074 1.33603L3.00876 1.81731C2.45454 2.3714 2.10592 3.09802 2.02051 3.87709C1.9351 4.65615 2.11801 5.44105 2.53901 6.10209L2.5436 6.10974C4.767 9.39967 7.6004 12.2328 10.8904 14.4559V14.4559Z" stroke="currentColor" stroke-width="1.5" stroke-linecap="round" stroke-linejoin="round"/>
</svg>